{
	"asset":{
		"generator":"Khronos glTF Blender I/O v4.5.49",
		"version":"2.0"
	},
	"extensionsUsed":[
		"KHR_materials_specular"
	],
	"scene":0,
	"scenes":[
		{
			"name":"Scene",
			"nodes":[
				0,
				1,
				2,
				3,
				4
			]
		}
	],
	"nodes":[
		{
			"mesh":0,
			"name":"Trees_004_Tree_0.001"
		},
		{
			"mesh":1,
			"name":"Trees_004_Tree_0.043"
		},
		{
			"mesh":2,
			"name":"Trees_004_Tree_0.044"
		},
		{
			"mesh":3,
			"name":"Trees_004_Tree_0.045"
		},
		{
			"mesh":4,
			"name":"Trees_004_Tree_0.046"
		}
	],
	"materials":[
		{
			"alphaCutoff":0.25447696447372437,
			"alphaMode":"MASK",
			"doubleSided":true,
			"name":"Tree.001",
			"pbrMetallicRoughness":{
				"baseColorTexture":{
					"index":0
				},
				"metallicFactor":0
			}
		},
		{
			"alphaCutoff":0.37638211250305176,
			"alphaMode":"MASK",
			"doubleSided":true,
			"name":"Tree_01.001",
			"pbrMetallicRoughness":{
				"baseColorTexture":{
					"index":1
				},
				"metallicFactor":0
			}
		},
		{
			"alphaCutoff":0.3946678638458252,
			"alphaMode":"MASK",
			"doubleSided":true,
			"name":"Bush.001",
			"pbrMetallicRoughness":{
				"baseColorTexture":{
					"index":2
				},
				"metallicFactor":0
			}
		},
		{
			"alphaCutoff":0.18133388459682465,
			"alphaMode":"MASK",
			"doubleSided":true,
			"extensions":{
				"KHR_materials_specular":{
					"specularFactor":0
				}
			},
			"name":"Background.001",
			"pbrMetallicRoughness":{
				"baseColorTexture":{
					"index":3
				},
				"metallicFactor":0
			}
		},
		{
			"alphaCutoff":0.3337152898311615,
			"alphaMode":"MASK",
			"doubleSided":true,
			"name":"Background_01.001",
			"pbrMetallicRoughness":{
				"baseColorTexture":{
					"index":4
				},
				"metallicFactor":0
			}
		}
	],
	"meshes":[
		{
			"name":"Trees_004_Tree_0.063",
			"primitives":[
				{
					"attributes":{
						"POSITION":0,
						"NORMAL":1,
						"TEXCOORD_0":2,
						"TEXCOORD_1":3
					},
					"indices":4,
					"material":0
				}
			]
		},
		{
			"name":"Trees_004_Tree_0.064",
			"primitives":[
				{
					"attributes":{
						"POSITION":5,
						"NORMAL":6,
						"TEXCOORD_0":7,
						"TEXCOORD_1":8
					},
					"indices":9,
					"material":1
				}
			]
		},
		{
			"name":"Trees_004_Tree_0.065",
			"primitives":[
				{
					"attributes":{
						"POSITION":10,
						"NORMAL":11,
						"TEXCOORD_0":12,
						"TEXCOORD_1":13
					},
					"indices":14,
					"material":2
				}
			]
		},
		{
			"name":"Trees_004_Tree_0.066",
			"primitives":[
				{
					"attributes":{
						"POSITION":15,
						"NORMAL":16,
						"TEXCOORD_0":17,
						"TEXCOORD_1":18
					},
					"indices":19,
					"material":3
				}
			]
		},
		{
			"name":"Trees_004_Tree_0.067",
			"primitives":[
				{
					"attributes":{
						"POSITION":20,
						"NORMAL":21,
						"TEXCOORD_0":22,
						"TEXCOORD_1":23
					},
					"indices":24,
					"material":4
				}
			]
		}
	],
	"textures":[
		{
			"sampler":0,
			"source":0
		},
		{
			"sampler":0,
			"source":1
		},
		{
			"sampler":0,
			"source":2
		},
		{
			"sampler":0,
			"source":3
		},
		{
			"sampler":0,
			"source":4
		}
	],
	"images":[
		{
			"mimeType":"image/png",
			"name":"Tree_baseColor",
			"uri":"textures/Tree_baseColor.png"
		},
		{
			"mimeType":"image/png",
			"name":"Tree_01_baseColor",
			"uri":"textures/Tree_01_baseColor.png"
		},
		{
			"mimeType":"image/png",
			"name":"Bush_baseColor",
			"uri":"textures/Bush_baseColor.png"
		},
		{
			"mimeType":"image/png",
			"name":"Background_baseColor",
			"uri":"textures/Background_baseColor.png"
		},
		{
			"mimeType":"image/png",
			"name":"Background_01_baseColor",
			"uri":"textures/Background_01_baseColor.png"
		}
	],
	"accessors":[
		{
			"bufferView":0,
			"componentType":5126,
			"count":2906,
			"max":[
				12.982772827148438,
				11.781441688537598,
				26.497360229492188
			],
			"min":[
				-109.7998046875,
				-0.46333926916122437,
				-121.22272491455078
			],
			"type":"VEC3"
		},
		{
			"bufferView":1,
			"componentType":5126,
			"count":2906,
			"type":"VEC3"
		},
		{
			"bufferView":2,
			"componentType":5126,
			"count":2906,
			"type":"VEC2"
		},
		{
			"bufferView":3,
			"componentType":5126,
			"count":2906,
			"type":"VEC2"
		},
		{
			"bufferView":4,
			"componentType":5123,
			"count":4800,
			"type":"SCALAR"
		},
		{
			"bufferView":5,
			"componentType":5126,
			"count":4049,
			"max":[
				15.89863109588623,
				14.769889831542969,
				52.092674255371094
			],
			"min":[
				-121.52586364746094,
				-0.9310564398765564,
				-108.06241607666016
			],
			"type":"VEC3"
		},
		{
			"bufferView":6,
			"componentType":5126,
			"count":4049,
			"type":"VEC3"
		},
		{
			"bufferView":7,
			"componentType":5126,
			"count":4049,
			"type":"VEC2"
		},
		{
			"bufferView":8,
			"componentType":5126,
			"count":4049,
			"type":"VEC2"
		},
		{
			"bufferView":9,
			"componentType":5123,
			"count":6528,
			"type":"SCALAR"
		},
		{
			"bufferView":10,
			"componentType":5126,
			"count":11712,
			"max":[
				10.704391479492188,
				3.8392961025238037,
				48.77803039550781
			],
			"min":[
				-115.44088745117188,
				-1.7913472652435303,
				-116.45256042480469
			],
			"type":"VEC3"
		},
		{
			"bufferView":11,
			"componentType":5126,
			"count":11712,
			"type":"VEC3"
		},
		{
			"bufferView":12,
			"componentType":5126,
			"count":11712,
			"type":"VEC2"
		},
		{
			"bufferView":13,
			"componentType":5126,
			"count":11712,
			"type":"VEC2"
		},
		{
			"bufferView":14,
			"componentType":5123,
			"count":17568,
			"type":"SCALAR"
		},
		{
			"bufferView":15,
			"componentType":5126,
			"count":28,
			"max":[
				26.10436248779297,
				26.21151351928711,
				57.31370544433594
			],
			"min":[
				-127.92341613769531,
				-0.27470970153808594,
				-125.29055786132812
			],
			"type":"VEC3"
		},
		{
			"bufferView":16,
			"componentType":5126,
			"count":28,
			"type":"VEC3"
		},
		{
			"bufferView":17,
			"componentType":5126,
			"count":28,
			"type":"VEC2"
		},
		{
			"bufferView":18,
			"componentType":5126,
			"count":28,
			"type":"VEC2"
		},
		{
			"bufferView":19,
			"componentType":5123,
			"count":48,
			"type":"SCALAR"
		},
		{
			"bufferView":20,
			"componentType":5126,
			"count":28,
			"max":[
				16.535064697265625,
				17.883949279785156,
				52.912757873535156
			],
			"min":[
				-121.74097442626953,
				-0.21992111206054688,
				-121.37532043457031
			],
			"type":"VEC3"
		},
		{
			"bufferView":21,
			"componentType":5126,
			"count":28,
			"type":"VEC3"
		},
		{
			"bufferView":22,
			"componentType":5126,
			"count":28,
			"type":"VEC2"
		},
		{
			"bufferView":23,
			"componentType":5126,
			"count":28,
			"type":"VEC2"
		},
		{
			"bufferView":24,
			"componentType":5123,
			"count":48,
			"type":"SCALAR"
		}
	],
	"bufferViews":[
		{
			"buffer":0,
			"byteLength":34872,
			"byteOffset":0,
			"target":34962
		},
		{
			"buffer":0,
			"byteLength":34872,
			"byteOffset":34872,
			"target":34962
		},
		{
			"buffer":0,
			"byteLength":23248,
			"byteOffset":69744,
			"target":34962
		},
		{
			"buffer":0,
			"byteLength":23248,
			"byteOffset":92992,
			"target":34962
		},
		{
			"buffer":0,
			"byteLength":9600,
			"byteOffset":116240,
			"target":34963
		},
		{
			"buffer":0,
			"byteLength":48588,
			"byteOffset":125840,
			"target":34962
		},
		{
			"buffer":0,
			"byteLength":48588,
			"byteOffset":174428,
			"target":34962
		},
		{
			"buffer":0,
			"byteLength":32392,
			"byteOffset":223016,
			"target":34962
		},
		{
			"buffer":0,
			"byteLength":32392,
			"byteOffset":255408,
			"target":34962
		},
		{
			"buffer":0,
			"byteLength":13056,
			"byteOffset":287800,
			"target":34963
		},
		{
			"buffer":0,
			"byteLength":140544,
			"byteOffset":300856,
			"target":34962
		},
		{
			"buffer":0,
			"byteLength":140544,
			"byteOffset":441400,
			"target":34962
		},
		{
			"buffer":0,
			"byteLength":93696,
			"byteOffset":581944,
			"target":34962
		},
		{
			"buffer":0,
			"byteLength":93696,
			"byteOffset":675640,
			"target":34962
		},
		{
			"buffer":0,
			"byteLength":35136,
			"byteOffset":769336,
			"target":34963
		},
		{
			"buffer":0,
			"byteLength":336,
			"byteOffset":804472,
			"target":34962
		},
		{
			"buffer":0,
			"byteLength":336,
			"byteOffset":804808,
			"target":34962
		},
		{
			"buffer":0,
			"byteLength":224,
			"byteOffset":805144,
			"target":34962
		},
		{
			"buffer":0,
			"byteLength":224,
			"byteOffset":805368,
			"target":34962
		},
		{
			"buffer":0,
			"byteLength":96,
			"byteOffset":805592,
			"target":34963
		},
		{
			"buffer":0,
			"byteLength":336,
			"byteOffset":805688,
			"target":34962
		},
		{
			"buffer":0,
			"byteLength":336,
			"byteOffset":806024,
			"target":34962
		},
		{
			"buffer":0,
			"byteLength":224,
			"byteOffset":806360,
			"target":34962
		},
		{
			"buffer":0,
			"byteLength":224,
			"byteOffset":806584,
			"target":34962
		},
		{
			"buffer":0,
			"byteLength":96,
			"byteOffset":806808,
			"target":34963
		}
	],
	"samplers":[
		{
			"magFilter":9729,
			"minFilter":9987
		}
	],
	"buffers":[
		{
			"byteLength":806904,
			"uri":"scene_transparent.bin"
		}
	]
}
