# Blender 4.5.4 LTS
# www.blender.org
mtllib floorCube.mtl
o Cube
v -1.000000 -1.000000 1.000000
v -1.000000 1.000000 1.000000
v -1.000000 -1.000000 -1.000000
v -1.000000 1.000000 -1.000000
v 1.000000 -1.000000 1.000000
v 1.000000 1.000000 1.000000
v 1.000000 -1.000000 -1.000000
v 1.000000 1.000000 -1.000000
v -1.000000 -1.000000 0.750000
v -1.000000 -1.000000 0.500000
v -1.000000 -1.000000 0.250000
v -1.000000 -1.000000 0.000000
v -1.000000 -1.000000 -0.250000
v -1.000000 -1.000000 -0.500000
v -1.000000 -1.000000 -0.750000
v -1.000000 -0.750000 1.000000
v -1.000000 -0.500000 1.000000
v -1.000000 -0.250000 1.000000
v -1.000000 0.000000 1.000000
v -1.000000 0.250000 1.000000
v -1.000000 0.500000 1.000000
v -1.000000 0.750000 1.000000
v -1.000000 1.000000 0.750000
v -1.000000 1.000000 0.500000
v -1.000000 1.000000 0.250000
v -1.000000 1.000000 -0.000000
v -1.000000 1.000000 -0.250000
v -1.000000 1.000000 -0.500000
v -1.000000 1.000000 -0.750000
v -1.000000 -0.750000 -1.000000
v -1.000000 -0.500000 -1.000000
v -1.000000 -0.250000 -1.000000
v -1.000000 -0.000000 -1.000000
v -1.000000 0.250000 -1.000000
v -1.000000 0.500000 -1.000000
v -1.000000 0.750000 -1.000000
v -0.750000 -1.000000 -1.000000
v -0.500000 -1.000000 -1.000000
v -0.250000 -1.000000 -1.000000
v 0.000000 -1.000000 -1.000000
v 0.250000 -1.000000 -1.000000
v 0.500000 -1.000000 -1.000000
v 0.750000 -1.000000 -1.000000
v -0.750000 1.000000 -1.000000
v -0.500000 1.000000 -1.000000
v -0.250000 1.000000 -1.000000
v 0.000000 1.000000 -1.000000
v 0.250000 1.000000 -1.000000
v 0.500000 1.000000 -1.000000
v 0.750000 1.000000 -1.000000
v 1.000000 -0.750000 -1.000000
v 1.000000 -0.500000 -1.000000
v 1.000000 -0.250000 -1.000000
v 1.000000 -0.000000 -1.000000
v 1.000000 0.250000 -1.000000
v 1.000000 0.500000 -1.000000
v 1.000000 0.750000 -1.000000
v 1.000000 -1.000000 0.750000
v 1.000000 -1.000000 0.500000
v 1.000000 -1.000000 0.250000
v 1.000000 -1.000000 0.000000
v 1.000000 -1.000000 -0.250000
v 1.000000 -1.000000 -0.500000
v 1.000000 -1.000000 -0.750000
v 1.000000 1.000000 0.750000
v 1.000000 1.000000 0.500000
v 1.000000 1.000000 0.250000
v 1.000000 1.000000 -0.000000
v 1.000000 1.000000 -0.250000
v 1.000000 1.000000 -0.500000
v 1.000000 1.000000 -0.750000
v 1.000000 -0.750000 1.000000
v 1.000000 -0.500000 1.000000
v 1.000000 -0.250000 1.000000
v 1.000000 0.000000 1.000000
v 1.000000 0.250000 1.000000
v 1.000000 0.500000 1.000000
v 1.000000 0.750000 1.000000
v -0.750000 -1.000000 1.000000
v -0.500000 -1.000000 1.000000
v -0.250000 -1.000000 1.000000
v 0.000000 -1.000000 1.000000
v 0.250000 -1.000000 1.000000
v 0.500000 -1.000000 1.000000
v 0.750000 -1.000000 1.000000
v -0.750000 1.000000 1.000000
v -0.500000 1.000000 1.000000
v -0.250000 1.000000 1.000000
v 0.000000 1.000000 1.000000
v 0.250000 1.000000 1.000000
v 0.500000 1.000000 1.000000
v 0.750000 1.000000 1.000000
v -1.000000 -0.750000 0.750000
v -1.000000 -0.500000 0.750000
v -1.000000 -0.250000 0.750000
v -1.000000 0.000000 0.750000
v -1.000000 0.250000 0.750000
v -1.000000 0.500000 0.750000
v -1.000000 0.750000 0.750000
v -1.000000 -0.750000 0.500000
v -1.000000 -0.500000 0.500000
v -1.000000 -0.250000 0.500000
v -1.000000 0.000000 0.500000
v -1.000000 0.250000 0.500000
v -1.000000 0.500000 0.500000
v -1.000000 0.750000 0.500000
v -1.000000 -0.750000 0.250000
v -1.000000 -0.500000 0.250000
v -1.000000 -0.250000 0.250000
v -1.000000 0.000000 0.250000
v -1.000000 0.250000 0.250000
v -1.000000 0.500000 0.250000
v -1.000000 0.750000 0.250000
v -1.000000 -0.750000 0.000000
v -1.000000 -0.500000 0.000000
v -1.000000 -0.250000 0.000000
v -1.000000 0.000000 0.000000
v -1.000000 0.250000 0.000000
v -1.000000 0.500000 -0.000000
v -1.000000 0.750000 -0.000000
v -1.000000 -0.750000 -0.250000
v -1.000000 -0.500000 -0.250000
v -1.000000 -0.250000 -0.250000
v -1.000000 0.000000 -0.250000
v -1.000000 0.250000 -0.250000
v -1.000000 0.500000 -0.250000
v -1.000000 0.750000 -0.250000
v -1.000000 -0.750000 -0.500000
v -1.000000 -0.500000 -0.500000
v -1.000000 -0.250000 -0.500000
v -1.000000 -0.000000 -0.500000
v -1.000000 0.250000 -0.500000
v -1.000000 0.500000 -0.500000
v -1.000000 0.750000 -0.500000
v -1.000000 -0.750000 -0.750000
v -1.000000 -0.500000 -0.750000
v -1.000000 -0.250000 -0.750000
v -1.000000 -0.000000 -0.750000
v -1.000000 0.250000 -0.750000
v -1.000000 0.500000 -0.750000
v -1.000000 0.750000 -0.750000
v -0.750000 -0.750000 -1.000000
v -0.750000 -0.500000 -1.000000
v -0.750000 -0.250000 -1.000000
v -0.750000 -0.000000 -1.000000
v -0.750000 0.250000 -1.000000
v -0.750000 0.500000 -1.000000
v -0.750000 0.750000 -1.000000
v -0.500000 -0.750000 -1.000000
v -0.500000 -0.500000 -1.000000
v -0.500000 -0.250000 -1.000000
v -0.500000 -0.000000 -1.000000
v -0.500000 0.250000 -1.000000
v -0.500000 0.500000 -1.000000
v -0.500000 0.750000 -1.000000
v -0.250000 -0.750000 -1.000000
v -0.250000 -0.500000 -1.000000
v -0.250000 -0.250000 -1.000000
v -0.250000 -0.000000 -1.000000
v -0.250000 0.250000 -1.000000
v -0.250000 0.500000 -1.000000
v -0.250000 0.750000 -1.000000
v -0.000000 -0.750000 -1.000000
v -0.000000 -0.500000 -1.000000
v 0.000000 -0.250000 -1.000000
v -0.000000 -0.000000 -1.000000
v -0.000000 0.250000 -1.000000
v -0.000000 0.500000 -1.000000
v -0.000000 0.750000 -1.000000
v 0.250000 -0.750000 -1.000000
v 0.250000 -0.500000 -1.000000
v 0.250000 -0.250000 -1.000000
v 0.250000 -0.000000 -1.000000
v 0.250000 0.250000 -1.000000
v 0.250000 0.500000 -1.000000
v 0.250000 0.750000 -1.000000
v 0.500000 -0.750000 -1.000000
v 0.500000 -0.500000 -1.000000
v 0.500000 -0.250000 -1.000000
v 0.500000 -0.000000 -1.000000
v 0.500000 0.250000 -1.000000
v 0.500000 0.500000 -1.000000
v 0.500000 0.750000 -1.000000
v 0.750000 -0.750000 -1.000000
v 0.750000 -0.500000 -1.000000
v 0.750000 -0.250000 -1.000000
v 0.750000 -0.000000 -1.000000
v 0.750000 0.250000 -1.000000
v 0.750000 0.500000 -1.000000
v 0.750000 0.750000 -1.000000
v 1.000000 -0.750000 -0.750000
v 1.000000 -0.500000 -0.750000
v 1.000000 -0.250000 -0.750000
v 1.000000 -0.000000 -0.750000
v 1.000000 0.250000 -0.750000
v 1.000000 0.500000 -0.750000
v 1.000000 0.750000 -0.750000
v 1.000000 -0.750000 -0.500000
v 1.000000 -0.500000 -0.500000
v 1.000000 -0.250000 -0.500000
v 1.000000 -0.000000 -0.500000
v 1.000000 0.250000 -0.500000
v 1.000000 0.500000 -0.500000
v 1.000000 0.750000 -0.500000
v 1.000000 -0.750000 -0.250000
v 1.000000 -0.500000 -0.250000
v 1.000000 -0.250000 -0.250000
v 1.000000 -0.000000 -0.250000
v 1.000000 0.250000 -0.250000
v 1.000000 0.500000 -0.250000
v 1.000000 0.750000 -0.250000
v 1.000000 -0.750000 0.000000
v 1.000000 -0.500000 0.000000
v 1.000000 -0.250000 0.000000
v 1.000000 0.000000 -0.000000
v 1.000000 0.250000 -0.000000
v 1.000000 0.500000 -0.000000
v 1.000000 0.750000 -0.000000
v 1.000000 -0.750000 0.250000
v 1.000000 -0.500000 0.250000
v 1.000000 -0.250000 0.250000
v 1.000000 0.000000 0.250000
v 1.000000 0.250000 0.250000
v 1.000000 0.500000 0.250000
v 1.000000 0.750000 0.250000
v 1.000000 -0.750000 0.500000
v 1.000000 -0.500000 0.500000
v 1.000000 -0.250000 0.500000
v 1.000000 0.000000 0.500000
v 1.000000 0.250000 0.500000
v 1.000000 0.500000 0.500000
v 1.000000 0.750000 0.500000
v 1.000000 -0.750000 0.750000
v 1.000000 -0.500000 0.750000
v 1.000000 -0.250000 0.750000
v 1.000000 0.000000 0.750000
v 1.000000 0.250000 0.750000
v 1.000000 0.500000 0.750000
v 1.000000 0.750000 0.750000
v 0.750000 -0.750000 1.000000
v 0.750000 -0.500000 1.000000
v 0.750000 -0.250000 1.000000
v 0.750000 0.000000 1.000000
v 0.750000 0.250000 1.000000
v 0.750000 0.500000 1.000000
v 0.750000 0.750000 1.000000
v 0.500000 -0.750000 1.000000
v 0.500000 -0.500000 1.000000
v 0.500000 -0.250000 1.000000
v 0.500000 0.000000 1.000000
v 0.500000 0.250000 1.000000
v 0.500000 0.500000 1.000000
v 0.500000 0.750000 1.000000
v 0.250000 -0.750000 1.000000
v 0.250000 -0.500000 1.000000
v 0.250000 -0.250000 1.000000
v 0.250000 0.000000 1.000000
v 0.250000 0.250000 1.000000
v 0.250000 0.500000 1.000000
v 0.250000 0.750000 1.000000
v 0.000000 -0.750000 1.000000
v 0.000000 -0.500000 1.000000
v 0.000000 -0.250000 1.000000
v 0.000000 0.000000 1.000000
v 0.000000 0.250000 1.000000
v 0.000000 0.500000 1.000000
v 0.000000 0.750000 1.000000
v -0.250000 -0.750000 1.000000
v -0.250000 -0.500000 1.000000
v -0.250000 -0.250000 1.000000
v -0.250000 0.000000 1.000000
v -0.250000 0.250000 1.000000
v -0.250000 0.500000 1.000000
v -0.250000 0.750000 1.000000
v -0.500000 -0.750000 1.000000
v -0.500000 -0.500000 1.000000
v -0.500000 -0.250000 1.000000
v -0.500000 0.000000 1.000000
v -0.500000 0.250000 1.000000
v -0.500000 0.500000 1.000000
v -0.500000 0.750000 1.000000
v -0.750000 -0.750000 1.000000
v -0.750000 -0.500000 1.000000
v -0.750000 -0.250000 1.000000
v -0.750000 0.000000 1.000000
v -0.750000 0.250000 1.000000
v -0.750000 0.500000 1.000000
v -0.750000 0.750000 1.000000
v -0.750000 -1.000000 -0.750000
v -0.500000 -1.000000 -0.750000
v -0.250000 -1.000000 -0.750000
v 0.000000 -1.000000 -0.750000
v 0.250000 -1.000000 -0.750000
v 0.500000 -1.000000 -0.750000
v 0.750000 -1.000000 -0.750000
v -0.750000 -1.000000 -0.500000
v -0.500000 -1.000000 -0.500000
v -0.250000 -1.000000 -0.500000
v 0.000000 -1.000000 -0.500000
v 0.250000 -1.000000 -0.500000
v 0.500000 -1.000000 -0.500000
v 0.750000 -1.000000 -0.500000
v -0.750000 -1.000000 -0.250000
v -0.500000 -1.000000 -0.250000
v -0.250000 -1.000000 -0.250000
v 0.000000 -1.000000 -0.250000
v 0.250000 -1.000000 -0.250000
v 0.500000 -1.000000 -0.250000
v 0.750000 -1.000000 -0.250000
v -0.750000 -1.000000 0.000000
v -0.500000 -1.000000 0.000000
v -0.250000 -1.000000 0.000000
v 0.000000 -1.000000 0.000000
v 0.250000 -1.000000 0.000000
v 0.500000 -1.000000 0.000000
v 0.750000 -1.000000 0.000000
v -0.750000 -1.000000 0.250000
v -0.500000 -1.000000 0.250000
v -0.250000 -1.000000 0.250000
v 0.000000 -1.000000 0.250000
v 0.250000 -1.000000 0.250000
v 0.500000 -1.000000 0.250000
v 0.750000 -1.000000 0.250000
v -0.750000 -1.000000 0.500000
v -0.500000 -1.000000 0.500000
v -0.250000 -1.000000 0.500000
v 0.000000 -1.000000 0.500000
v 0.250000 -1.000000 0.500000
v 0.500000 -1.000000 0.500000
v 0.750000 -1.000000 0.500000
v -0.750000 -1.000000 0.750000
v -0.500000 -1.000000 0.750000
v -0.250000 -1.000000 0.750000
v 0.000000 -1.000000 0.750000
v 0.250000 -1.000000 0.750000
v 0.500000 -1.000000 0.750000
v 0.750000 -1.000000 0.750000
v 0.750000 1.000000 -0.750000
v 0.500000 1.000000 -0.750000
v 0.250000 1.000000 -0.750000
v 0.000000 1.000000 -0.750000
v -0.250000 1.000000 -0.750000
v -0.500000 1.000000 -0.750000
v -0.750000 1.000000 -0.750000
v 0.750000 1.000000 -0.500000
v 0.500000 1.000000 -0.500000
v 0.250000 1.000000 -0.500000
v -0.000000 1.000000 -0.500000
v -0.250000 1.000000 -0.500000
v -0.500000 1.000000 -0.500000
v -0.750000 1.000000 -0.500000
v 0.750000 1.000000 -0.250000
v 0.500000 1.000000 -0.250000
v 0.250000 1.000000 -0.250000
v 0.000000 1.000000 -0.250000
v -0.250000 1.000000 -0.250000
v -0.500000 1.000000 -0.250000
v -0.750000 1.000000 -0.250000
v 0.750000 1.000000 -0.000000
v 0.500000 1.000000 -0.000000
v 0.250000 1.000000 -0.000000
v -0.000000 1.000000 -0.000000
v -0.250000 1.000000 -0.000000
v -0.500000 1.000000 -0.000000
v -0.750000 1.000000 -0.000000
v 0.750000 1.000000 0.250000
v 0.500000 1.000000 0.250000
v 0.250000 1.000000 0.250000
v -0.000000 1.000000 0.250000
v -0.250000 1.000000 0.250000
v -0.500000 1.000000 0.250000
v -0.750000 1.000000 0.250000
v 0.750000 1.000000 0.500000
v 0.500000 1.000000 0.500000
v 0.250000 1.000000 0.500000
v 0.000000 1.000000 0.500000
v -0.250000 1.000000 0.500000
v -0.500000 1.000000 0.500000
v -0.750000 1.000000 0.500000
v 0.750000 1.000000 0.750000
v 0.500000 1.000000 0.750000
v 0.250000 1.000000 0.750000
v 0.000000 1.000000 0.750000
v -0.250000 1.000000 0.750000
v -0.500000 1.000000 0.750000
v -0.750000 1.000000 0.750000
vn -1.0000 -0.0000 -0.0000
vn -0.0000 -0.0000 -1.0000
vn 1.0000 -0.0000 -0.0000
vn -0.0000 -0.0000 1.0000
vn -0.0000 -1.0000 -0.0000
vn -0.0000 1.0000 -0.0000
s 1
f 93//1 94//1 101//1 100//1
f 94//1 95//1 102//1 101//1
f 95//1 96//1 103//1 102//1
f 96//1 97//1 104//1 103//1
f 97//1 98//1 105//1 104//1
f 98//1 99//1 106//1 105//1
f 100//1 101//1 108//1 107//1
f 101//1 102//1 109//1 108//1
f 102//1 103//1 110//1 109//1
f 103//1 104//1 111//1 110//1
f 104//1 105//1 112//1 111//1
f 105//1 106//1 113//1 112//1
f 107//1 108//1 115//1 114//1
f 108//1 109//1 116//1 115//1
f 109//1 110//1 117//1 116//1
f 110//1 111//1 118//1 117//1
f 111//1 112//1 119//1 118//1
f 112//1 113//1 120//1 119//1
f 114//1 115//1 122//1 121//1
f 115//1 116//1 123//1 122//1
f 116//1 117//1 124//1 123//1
f 117//1 118//1 125//1 124//1
f 118//1 119//1 126//1 125//1
f 119//1 120//1 127//1 126//1
f 121//1 122//1 129//1 128//1
f 122//1 123//1 130//1 129//1
f 123//1 124//1 131//1 130//1
f 124//1 125//1 132//1 131//1
f 125//1 126//1 133//1 132//1
f 126//1 127//1 134//1 133//1
f 128//1 129//1 136//1 135//1
f 129//1 130//1 137//1 136//1
f 130//1 131//1 138//1 137//1
f 131//1 132//1 139//1 138//1
f 132//1 133//1 140//1 139//1
f 133//1 134//1 141//1 140//1
f 1//1 16//1 93//1 9//1
f 16//1 17//1 94//1 93//1
f 17//1 18//1 95//1 94//1
f 18//1 19//1 96//1 95//1
f 19//1 20//1 97//1 96//1
f 20//1 21//1 98//1 97//1
f 21//1 22//1 99//1 98//1
f 22//1 2//1 23//1 99//1
f 99//1 23//1 24//1 106//1
f 106//1 24//1 25//1 113//1
f 113//1 25//1 26//1 120//1
f 120//1 26//1 27//1 127//1
f 127//1 27//1 28//1 134//1
f 134//1 28//1 29//1 141//1
f 141//1 29//1 4//1 36//1
f 140//1 141//1 36//1 35//1
f 139//1 140//1 35//1 34//1
f 138//1 139//1 34//1 33//1
f 137//1 138//1 33//1 32//1
f 136//1 137//1 32//1 31//1
f 135//1 136//1 31//1 30//1
f 15//1 135//1 30//1 3//1
f 14//1 128//1 135//1 15//1
f 13//1 121//1 128//1 14//1
f 12//1 114//1 121//1 13//1
f 11//1 107//1 114//1 12//1
f 10//1 100//1 107//1 11//1
f 9//1 93//1 100//1 10//1
f 142//2 143//2 150//2 149//2
f 143//2 144//2 151//2 150//2
f 144//2 145//2 152//2 151//2
f 145//2 146//2 153//2 152//2
f 146//2 147//2 154//2 153//2
f 147//2 148//2 155//2 154//2
f 149//2 150//2 157//2 156//2
f 150//2 151//2 158//2 157//2
f 151//2 152//2 159//2 158//2
f 152//2 153//2 160//2 159//2
f 153//2 154//2 161//2 160//2
f 154//2 155//2 162//2 161//2
f 156//2 157//2 164//2 163//2
f 157//2 158//2 165//2 164//2
f 158//2 159//2 166//2 165//2
f 159//2 160//2 167//2 166//2
f 160//2 161//2 168//2 167//2
f 161//2 162//2 169//2 168//2
f 163//2 164//2 171//2 170//2
f 164//2 165//2 172//2 171//2
f 165//2 166//2 173//2 172//2
f 166//2 167//2 174//2 173//2
f 167//2 168//2 175//2 174//2
f 168//2 169//2 176//2 175//2
f 170//2 171//2 178//2 177//2
f 171//2 172//2 179//2 178//2
f 172//2 173//2 180//2 179//2
f 173//2 174//2 181//2 180//2
f 174//2 175//2 182//2 181//2
f 175//2 176//2 183//2 182//2
f 177//2 178//2 185//2 184//2
f 178//2 179//2 186//2 185//2
f 179//2 180//2 187//2 186//2
f 180//2 181//2 188//2 187//2
f 181//2 182//2 189//2 188//2
f 182//2 183//2 190//2 189//2
f 3//2 30//2 142//2 37//2
f 30//2 31//2 143//2 142//2
f 31//2 32//2 144//2 143//2
f 32//2 33//2 145//2 144//2
f 33//2 34//2 146//2 145//2
f 34//2 35//2 147//2 146//2
f 35//2 36//2 148//2 147//2
f 36//2 4//2 44//2 148//2
f 148//2 44//2 45//2 155//2
f 155//2 45//2 46//2 162//2
f 162//2 46//2 47//2 169//2
f 169//2 47//2 48//2 176//2
f 176//2 48//2 49//2 183//2
f 183//2 49//2 50//2 190//2
f 190//2 50//2 8//2 57//2
f 189//2 190//2 57//2 56//2
f 188//2 189//2 56//2 55//2
f 187//2 188//2 55//2 54//2
f 186//2 187//2 54//2 53//2
f 185//2 186//2 53//2 52//2
f 184//2 185//2 52//2 51//2
f 43//2 184//2 51//2 7//2
f 42//2 177//2 184//2 43//2
f 41//2 170//2 177//2 42//2
f 40//2 163//2 170//2 41//2
f 39//2 156//2 163//2 40//2
f 38//2 149//2 156//2 39//2
f 37//2 142//2 149//2 38//2
f 191//3 192//3 199//3 198//3
f 192//3 193//3 200//3 199//3
f 193//3 194//3 201//3 200//3
f 194//3 195//3 202//3 201//3
f 195//3 196//3 203//3 202//3
f 196//3 197//3 204//3 203//3
f 198//3 199//3 206//3 205//3
f 199//3 200//3 207//3 206//3
f 200//3 201//3 208//3 207//3
f 201//3 202//3 209//3 208//3
f 202//3 203//3 210//3 209//3
f 203//3 204//3 211//3 210//3
f 205//3 206//3 213//3 212//3
f 206//3 207//3 214//3 213//3
f 207//3 208//3 215//3 214//3
f 208//3 209//3 216//3 215//3
f 209//3 210//3 217//3 216//3
f 210//3 211//3 218//3 217//3
f 212//3 213//3 220//3 219//3
f 213//3 214//3 221//3 220//3
f 214//3 215//3 222//3 221//3
f 215//3 216//3 223//3 222//3
f 216//3 217//3 224//3 223//3
f 217//3 218//3 225//3 224//3
f 219//3 220//3 227//3 226//3
f 220//3 221//3 228//3 227//3
f 221//3 222//3 229//3 228//3
f 222//3 223//3 230//3 229//3
f 223//3 224//3 231//3 230//3
f 224//3 225//3 232//3 231//3
f 226//3 227//3 234//3 233//3
f 227//3 228//3 235//3 234//3
f 228//3 229//3 236//3 235//3
f 229//3 230//3 237//3 236//3
f 230//3 231//3 238//3 237//3
f 231//3 232//3 239//3 238//3
f 7//3 51//3 191//3 64//3
f 51//3 52//3 192//3 191//3
f 52//3 53//3 193//3 192//3
f 53//3 54//3 194//3 193//3
f 54//3 55//3 195//3 194//3
f 55//3 56//3 196//3 195//3
f 56//3 57//3 197//3 196//3
f 57//3 8//3 71//3 197//3
f 197//3 71//3 70//3 204//3
f 204//3 70//3 69//3 211//3
f 211//3 69//3 68//3 218//3
f 218//3 68//3 67//3 225//3
f 225//3 67//3 66//3 232//3
f 232//3 66//3 65//3 239//3
f 239//3 65//3 6//3 78//3
f 238//3 239//3 78//3 77//3
f 237//3 238//3 77//3 76//3
f 236//3 237//3 76//3 75//3
f 235//3 236//3 75//3 74//3
f 234//3 235//3 74//3 73//3
f 233//3 234//3 73//3 72//3
f 58//3 233//3 72//3 5//3
f 59//3 226//3 233//3 58//3
f 60//3 219//3 226//3 59//3
f 61//3 212//3 219//3 60//3
f 62//3 205//3 212//3 61//3
f 63//3 198//3 205//3 62//3
f 64//3 191//3 198//3 63//3
f 240//4 241//4 248//4 247//4
f 241//4 242//4 249//4 248//4
f 242//4 243//4 250//4 249//4
f 243//4 244//4 251//4 250//4
f 244//4 245//4 252//4 251//4
f 245//4 246//4 253//4 252//4
f 247//4 248//4 255//4 254//4
f 248//4 249//4 256//4 255//4
f 249//4 250//4 257//4 256//4
f 250//4 251//4 258//4 257//4
f 251//4 252//4 259//4 258//4
f 252//4 253//4 260//4 259//4
f 254//4 255//4 262//4 261//4
f 255//4 256//4 263//4 262//4
f 256//4 257//4 264//4 263//4
f 257//4 258//4 265//4 264//4
f 258//4 259//4 266//4 265//4
f 259//4 260//4 267//4 266//4
f 261//4 262//4 269//4 268//4
f 262//4 263//4 270//4 269//4
f 263//4 264//4 271//4 270//4
f 264//4 265//4 272//4 271//4
f 265//4 266//4 273//4 272//4
f 266//4 267//4 274//4 273//4
f 268//4 269//4 276//4 275//4
f 269//4 270//4 277//4 276//4
f 270//4 271//4 278//4 277//4
f 271//4 272//4 279//4 278//4
f 272//4 273//4 280//4 279//4
f 273//4 274//4 281//4 280//4
f 275//4 276//4 283//4 282//4
f 276//4 277//4 284//4 283//4
f 277//4 278//4 285//4 284//4
f 278//4 279//4 286//4 285//4
f 279//4 280//4 287//4 286//4
f 280//4 281//4 288//4 287//4
f 5//4 72//4 240//4 85//4
f 72//4 73//4 241//4 240//4
f 73//4 74//4 242//4 241//4
f 74//4 75//4 243//4 242//4
f 75//4 76//4 244//4 243//4
f 76//4 77//4 245//4 244//4
f 77//4 78//4 246//4 245//4
f 78//4 6//4 92//4 246//4
f 246//4 92//4 91//4 253//4
f 253//4 91//4 90//4 260//4
f 260//4 90//4 89//4 267//4
f 267//4 89//4 88//4 274//4
f 274//4 88//4 87//4 281//4
f 281//4 87//4 86//4 288//4
f 288//4 86//4 2//4 22//4
f 287//4 288//4 22//4 21//4
f 286//4 287//4 21//4 20//4
f 285//4 286//4 20//4 19//4
f 284//4 285//4 19//4 18//4
f 283//4 284//4 18//4 17//4
f 282//4 283//4 17//4 16//4
f 79//4 282//4 16//4 1//4
f 80//4 275//4 282//4 79//4
f 81//4 268//4 275//4 80//4
f 82//4 261//4 268//4 81//4
f 83//4 254//4 261//4 82//4
f 84//4 247//4 254//4 83//4
f 85//4 240//4 247//4 84//4
f 289//5 290//5 297//5 296//5
f 290//5 291//5 298//5 297//5
f 291//5 292//5 299//5 298//5
f 292//5 293//5 300//5 299//5
f 293//5 294//5 301//5 300//5
f 294//5 295//5 302//5 301//5
f 296//5 297//5 304//5 303//5
f 297//5 298//5 305//5 304//5
f 298//5 299//5 306//5 305//5
f 299//5 300//5 307//5 306//5
f 300//5 301//5 308//5 307//5
f 301//5 302//5 309//5 308//5
f 303//5 304//5 311//5 310//5
f 304//5 305//5 312//5 311//5
f 305//5 306//5 313//5 312//5
f 306//5 307//5 314//5 313//5
f 307//5 308//5 315//5 314//5
f 308//5 309//5 316//5 315//5
f 310//5 311//5 318//5 317//5
f 311//5 312//5 319//5 318//5
f 312//5 313//5 320//5 319//5
f 313//5 314//5 321//5 320//5
f 314//5 315//5 322//5 321//5
f 315//5 316//5 323//5 322//5
f 317//5 318//5 325//5 324//5
f 318//5 319//5 326//5 325//5
f 319//5 320//5 327//5 326//5
f 320//5 321//5 328//5 327//5
f 321//5 322//5 329//5 328//5
f 322//5 323//5 330//5 329//5
f 324//5 325//5 332//5 331//5
f 325//5 326//5 333//5 332//5
f 326//5 327//5 334//5 333//5
f 327//5 328//5 335//5 334//5
f 328//5 329//5 336//5 335//5
f 329//5 330//5 337//5 336//5
f 3//5 37//5 289//5 15//5
f 37//5 38//5 290//5 289//5
f 38//5 39//5 291//5 290//5
f 39//5 40//5 292//5 291//5
f 40//5 41//5 293//5 292//5
f 41//5 42//5 294//5 293//5
f 42//5 43//5 295//5 294//5
f 43//5 7//5 64//5 295//5
f 295//5 64//5 63//5 302//5
f 302//5 63//5 62//5 309//5
f 309//5 62//5 61//5 316//5
f 316//5 61//5 60//5 323//5
f 323//5 60//5 59//5 330//5
f 330//5 59//5 58//5 337//5
f 337//5 58//5 5//5 85//5
f 336//5 337//5 85//5 84//5
f 335//5 336//5 84//5 83//5
f 334//5 335//5 83//5 82//5
f 333//5 334//5 82//5 81//5
f 332//5 333//5 81//5 80//5
f 331//5 332//5 80//5 79//5
f 9//5 331//5 79//5 1//5
f 10//5 324//5 331//5 9//5
f 11//5 317//5 324//5 10//5
f 12//5 310//5 317//5 11//5
f 13//5 303//5 310//5 12//5
f 14//5 296//5 303//5 13//5
f 15//5 289//5 296//5 14//5
f 338//6 339//6 346//6 345//6
f 339//6 340//6 347//6 346//6
f 340//6 341//6 348//6 347//6
f 341//6 342//6 349//6 348//6
f 342//6 343//6 350//6 349//6
f 343//6 344//6 351//6 350//6
f 345//6 346//6 353//6 352//6
f 346//6 347//6 354//6 353//6
f 347//6 348//6 355//6 354//6
f 348//6 349//6 356//6 355//6
f 349//6 350//6 357//6 356//6
f 350//6 351//6 358//6 357//6
f 352//6 353//6 360//6 359//6
f 353//6 354//6 361//6 360//6
f 354//6 355//6 362//6 361//6
f 355//6 356//6 363//6 362//6
f 356//6 357//6 364//6 363//6
f 357//6 358//6 365//6 364//6
f 359//6 360//6 367//6 366//6
f 360//6 361//6 368//6 367//6
f 361//6 362//6 369//6 368//6
f 362//6 363//6 370//6 369//6
f 363//6 364//6 371//6 370//6
f 364//6 365//6 372//6 371//6
f 366//6 367//6 374//6 373//6
f 367//6 368//6 375//6 374//6
f 368//6 369//6 376//6 375//6
f 369//6 370//6 377//6 376//6
f 370//6 371//6 378//6 377//6
f 371//6 372//6 379//6 378//6
f 373//6 374//6 381//6 380//6
f 374//6 375//6 382//6 381//6
f 375//6 376//6 383//6 382//6
f 376//6 377//6 384//6 383//6
f 377//6 378//6 385//6 384//6
f 378//6 379//6 386//6 385//6
f 8//6 50//6 338//6 71//6
f 50//6 49//6 339//6 338//6
f 49//6 48//6 340//6 339//6
f 48//6 47//6 341//6 340//6
f 47//6 46//6 342//6 341//6
f 46//6 45//6 343//6 342//6
f 45//6 44//6 344//6 343//6
f 44//6 4//6 29//6 344//6
f 344//6 29//6 28//6 351//6
f 351//6 28//6 27//6 358//6
f 358//6 27//6 26//6 365//6
f 365//6 26//6 25//6 372//6
f 372//6 25//6 24//6 379//6
f 379//6 24//6 23//6 386//6
f 386//6 23//6 2//6 86//6
f 385//6 386//6 86//6 87//6
f 384//6 385//6 87//6 88//6
f 383//6 384//6 88//6 89//6
f 382//6 383//6 89//6 90//6
f 381//6 382//6 90//6 91//6
f 380//6 381//6 91//6 92//6
f 65//6 380//6 92//6 6//6
f 66//6 373//6 380//6 65//6
f 67//6 366//6 373//6 66//6
f 68//6 359//6 366//6 67//6
f 69//6 352//6 359//6 68//6
f 70//6 345//6 352//6 69//6
f 71//6 338//6 345//6 70//6
