{
	"asset":{
		"generator":"Khronos glTF Blender I/O v4.4.55",
		"version":"2.0"
	},
	"extensionsUsed":[
		"KHR_materials_specular"
	],
	"scene":0,
	"scenes":[
		{
			"name":"Scene",
			"nodes":[
				45
			]
		}
	],
	"nodes":[
		{
			"mesh":0,
			"name":"Body_Body_0"
		},
		{
			"children":[
				0
			],
			"name":"Object_4",
			"rotation":[
				0,
				-0.7071068286895752,
				0,
				0.7071067094802856
			]
		},
		{
			"children":[
				1
			],
			"name":"Body"
		},
		{
			"mesh":1,
			"name":"Bottom_gt1_Bottom_0"
		},
		{
			"children":[
				3
			],
			"name":"Object_10",
			"rotation":[
				0,
				-0.7071068286895752,
				0,
				0.7071067094802856
			]
		},
		{
			"children":[
				4
			],
			"name":"Bottom"
		},
		{
			"mesh":2,
			"name":"Bumper_Front_Body_0"
		},
		{
			"mesh":3,
			"name":"Bumper_Front_gt1_Bottom_0"
		},
		{
			"children":[
				6,
				7
			],
			"name":"Object_19",
			"rotation":[
				0,
				-0.7071068286895752,
				0,
				0.7071067094802856
			]
		},
		{
			"children":[
				8
			],
			"name":"Bumper_Front"
		},
		{
			"mesh":4,
			"name":"Bumper_rear_Body_0"
		},
		{
			"children":[
				10
			],
			"name":"Object_13",
			"rotation":[
				0,
				-0.7071068286895752,
				0,
				0.7071067094802856
			]
		},
		{
			"children":[
				11
			],
			"name":"Bumper_rear"
		},
		{
			"mesh":5,
			"name":"Glass_GT1_Glass_Clean_0"
		},
		{
			"children":[
				13
			],
			"name":"Object_26",
			"rotation":[
				0,
				-0.7071068286895752,
				0,
				0.7071067094802856
			]
		},
		{
			"children":[
				14
			],
			"name":"Glass"
		},
		{
			"mesh":6,
			"name":"Glass_Brakelights_gt1_headlights_3_0"
		},
		{
			"children":[
				16
			],
			"name":"Object_32",
			"rotation":[
				0,
				-0.7071068286895752,
				0,
				0.7071067094802856
			]
		},
		{
			"children":[
				17
			],
			"name":"Glass_Brakelights"
		},
		{
			"mesh":7,
			"name":"Glass_Headlights_gt1_headlights_3_0"
		},
		{
			"children":[
				19
			],
			"name":"Object_29",
			"rotation":[
				0,
				-0.7071068286895752,
				0,
				0.7071067094802856
			]
		},
		{
			"children":[
				20
			],
			"name":"Glass_Headlights"
		},
		{
			"mesh":8,
			"name":"Glass_Stoplights_gt1_headlights_3_0"
		},
		{
			"children":[
				22
			],
			"name":"Object_35",
			"rotation":[
				0,
				-0.7071068286895752,
				0,
				0.7071067094802856
			]
		},
		{
			"children":[
				23
			],
			"name":"Glass_Stoplights"
		},
		{
			"mesh":9,
			"name":"Hood_Body_0"
		},
		{
			"children":[
				25
			],
			"name":"Object_23",
			"rotation":[
				0,
				-0.7071068286895752,
				0,
				0.7071067094802856
			]
		},
		{
			"children":[
				26
			],
			"name":"Hood"
		},
		{
			"mesh":10,
			"name":"Trunkdoor_Body_0"
		},
		{
			"children":[
				28
			],
			"name":"Object_16",
			"rotation":[
				0,
				-0.7071068286895752,
				0,
				0.7071067094802856
			]
		},
		{
			"children":[
				29
			],
			"name":"Trunkdoor"
		},
		{
			"mesh":11,
			"name":"Wheels_FL_Venom3SP_0"
		},
		{
			"children":[
				31
			],
			"name":"Object_38",
			"rotation":[
				0,
				-0.7071068286895752,
				0,
				0.7071067094802856
			]
		},
		{
			"children":[
				32
			],
			"name":"Wheels_FL"
		},
		{
			"mesh":12,
			"name":"Wheels_FR_Venom3SP_0"
		},
		{
			"children":[
				34
			],
			"name":"Object_41",
			"rotation":[
				0,
				-0.7071068286895752,
				0,
				0.7071067094802856
			]
		},
		{
			"children":[
				35
			],
			"name":"Wheels_FR"
		},
		{
			"mesh":13,
			"name":"Wheels_RL_Venom3SP_0"
		},
		{
			"children":[
				37
			],
			"name":"Object_44",
			"rotation":[
				0,
				-0.7071068286895752,
				0,
				0.7071067094802856
			]
		},
		{
			"children":[
				38
			],
			"name":"Wheels_RL"
		},
		{
			"mesh":14,
			"name":"Wheels_RR_Venom3SP_0"
		},
		{
			"children":[
				40
			],
			"name":"Object_7",
			"rotation":[
				0,
				-0.7071068286895752,
				0,
				0.7071067094802856
			]
		},
		{
			"children":[
				41
			],
			"name":"Wheels_RR"
		},
		{
			"children":[
				2,
				5,
				9,
				12,
				15,
				18,
				21,
				24,
				27,
				30,
				33,
				36,
				39,
				42
			],
			"name":"RootNode"
		},
		{
			"children":[
				43
			],
			"name":"a9c877dd20b7426cac5a2747a8858e16.fbx"
		},
		{
			"children":[
				44
			],
			"name":"Sketchfab_model"
		}
	],
	"materials":[
		{
			"doubleSided":true,
			"extensions":{
				"KHR_materials_specular":{
					"specularTexture":{
						"index":0
					}
				}
			},
			"name":"Body.001",
			"occlusionTexture":{
				"index":1
			},
			"pbrMetallicRoughness":{
				"baseColorTexture":{
					"index":2
				},
				"metallicFactor":0,
				"metallicRoughnessTexture":{
					"index":1
				},
				"roughnessFactor":0.06042642891407013
			}
		},
		{
			"doubleSided":true,
			"extensions":{
				"KHR_materials_specular":{
					"specularTexture":{
						"index":3
					}
				}
			},
			"name":"gt1_Bottom.001",
			"pbrMetallicRoughness":{
				"baseColorTexture":{
					"index":4
				},
				"metallicFactor":0,
				"roughnessFactor":0.6495083570480347
			}
		},
		{
			"doubleSided":true,
			"name":"GT1_Glass_Clean.001",
			"pbrMetallicRoughness":{
				"baseColorFactor":[
					0.44302603602409363,
					0.44302603602409363,
					0.44302603602409363,
					1
				],
				"baseColorTexture":{
					"index":5
				},
				"metallicFactor":0.24868972599506378,
				"roughnessFactor":0.10702864080667496
			}
		},
		{
			"doubleSided":true,
			"name":"gt1_headlights_3.001",
			"pbrMetallicRoughness":{
				"baseColorTexture":{
					"index":6
				},
				"metallicFactor":0.16974060237407684,
				"roughnessFactor":0.10702864080667496
			}
		},
		{
			"doubleSided":true,
			"extensions":{
				"KHR_materials_specular":{
					"specularTexture":{
						"index":7
					}
				}
			},
			"name":"Venom3SP.001",
			"occlusionTexture":{
				"index":8
			},
			"pbrMetallicRoughness":{
				"baseColorTexture":{
					"index":9
				},
				"metallicRoughnessTexture":{
					"index":8
				}
			}
		}
	],
	"meshes":[
		{
			"name":"Body_Body_0.001",
			"primitives":[
				{
					"attributes":{
						"POSITION":0,
						"NORMAL":1,
						"TEXCOORD_0":2
					},
					"indices":3,
					"material":0
				}
			]
		},
		{
			"name":"Bottom_gt1_Bottom_0.001",
			"primitives":[
				{
					"attributes":{
						"POSITION":4,
						"NORMAL":5,
						"TEXCOORD_0":6
					},
					"indices":7,
					"material":1
				}
			]
		},
		{
			"name":"Bumper_Front_Body_0.001",
			"primitives":[
				{
					"attributes":{
						"POSITION":8,
						"NORMAL":9,
						"TEXCOORD_0":10
					},
					"indices":11,
					"material":0
				}
			]
		},
		{
			"name":"Bumper_Front_gt1_Bottom_0.001",
			"primitives":[
				{
					"attributes":{
						"POSITION":12,
						"NORMAL":13,
						"TEXCOORD_0":14
					},
					"indices":15,
					"material":1
				}
			]
		},
		{
			"name":"Bumper_rear_Body_0.001",
			"primitives":[
				{
					"attributes":{
						"POSITION":16,
						"NORMAL":17,
						"TEXCOORD_0":18
					},
					"indices":19,
					"material":0
				}
			]
		},
		{
			"name":"Glass_GT1_Glass_Clean_0.001",
			"primitives":[
				{
					"attributes":{
						"POSITION":20,
						"NORMAL":21,
						"TEXCOORD_0":22
					},
					"indices":23,
					"material":2
				}
			]
		},
		{
			"name":"Glass_Brakelights_gt1_headlights_3_0.001",
			"primitives":[
				{
					"attributes":{
						"POSITION":24,
						"NORMAL":25,
						"TEXCOORD_0":26
					},
					"indices":27,
					"material":3
				}
			]
		},
		{
			"name":"Glass_Headlights_gt1_headlights_3_0.001",
			"primitives":[
				{
					"attributes":{
						"POSITION":28,
						"NORMAL":29,
						"TEXCOORD_0":30
					},
					"indices":31,
					"material":3
				}
			]
		},
		{
			"name":"Glass_Stoplights_gt1_headlights_3_0.001",
			"primitives":[
				{
					"attributes":{
						"POSITION":32,
						"NORMAL":33,
						"TEXCOORD_0":34
					},
					"indices":35,
					"material":3
				}
			]
		},
		{
			"name":"Hood_Body_0.001",
			"primitives":[
				{
					"attributes":{
						"POSITION":36,
						"NORMAL":37,
						"TEXCOORD_0":38
					},
					"indices":39,
					"material":0
				}
			]
		},
		{
			"name":"Trunkdoor_Body_0.001",
			"primitives":[
				{
					"attributes":{
						"POSITION":40,
						"NORMAL":41,
						"TEXCOORD_0":42
					},
					"indices":43,
					"material":0
				}
			]
		},
		{
			"name":"Wheels_FL_Venom3SP_0.001",
			"primitives":[
				{
					"attributes":{
						"POSITION":44,
						"NORMAL":45,
						"TEXCOORD_0":46
					},
					"indices":47,
					"material":4
				}
			]
		},
		{
			"name":"Wheels_FR_Venom3SP_0.001",
			"primitives":[
				{
					"attributes":{
						"POSITION":48,
						"NORMAL":49,
						"TEXCOORD_0":50
					},
					"indices":51,
					"material":4
				}
			]
		},
		{
			"name":"Wheels_RL_Venom3SP_0.001",
			"primitives":[
				{
					"attributes":{
						"POSITION":52,
						"NORMAL":53,
						"TEXCOORD_0":54
					},
					"indices":47,
					"material":4
				}
			]
		},
		{
			"name":"Wheels_RR_Venom3SP_0.001",
			"primitives":[
				{
					"attributes":{
						"POSITION":55,
						"NORMAL":56,
						"TEXCOORD_0":57
					},
					"indices":51,
					"material":4
				}
			]
		}
	],
	"textures":[
		{
			"sampler":0,
			"source":0
		},
		{
			"sampler":0,
			"source":1
		},
		{
			"sampler":0,
			"source":2
		},
		{
			"sampler":0,
			"source":3
		},
		{
			"sampler":0,
			"source":4
		},
		{
			"sampler":0,
			"source":5
		},
		{
			"sampler":0,
			"source":6
		},
		{
			"sampler":0,
			"source":7
		},
		{
			"sampler":0,
			"source":8
		},
		{
			"sampler":0,
			"source":9
		}
	],
	"images":[
		{
			"mimeType":"image/png",
			"name":"Body_specularf0",
			"uri":"textures/Body_specularf0.png"
		},
		{
			"mimeType":"image/png",
			"name":"Body_metallicRoughness",
			"uri":"textures/Body_metallicRoughness.png"
		},
		{
			"mimeType":"image/png",
			"name":"Body_baseColor",
			"uri":"textures/Body_baseColor.png"
		},
		{
			"mimeType":"image/png",
			"name":"gt1_Bottom_specularf0",
			"uri":"textures/gt1_Bottom_specularf0.png"
		},
		{
			"mimeType":"image/jpeg",
			"name":"gt1_Bottom_baseColor",
			"uri":"textures/gt1_Bottom_baseColor.jpg"
		},
		{
			"mimeType":"image/png",
			"name":"GT1_Glass_Clean_baseColor",
			"uri":"textures/GT1_Glass_Clean_baseColor.png"
		},
		{
			"mimeType":"image/jpeg",
			"name":"gt1_headlights_3_baseColor",
			"uri":"textures/gt1_headlights_3_baseColor.jpg"
		},
		{
			"mimeType":"image/png",
			"name":"Venom3SP_specularf0",
			"uri":"textures/Venom3SP_specularf0.png"
		},
		{
			"mimeType":"image/png",
			"name":"Venom3SP_metallicRoughness",
			"uri":"textures/Venom3SP_metallicRoughness.png"
		},
		{
			"mimeType":"image/jpeg",
			"name":"Venom3SP_baseColor",
			"uri":"textures/Venom3SP_baseColor.jpg"
		}
	],
	"accessors":[
		{
			"bufferView":0,
			"componentType":5126,
			"count":430,
			"max":[
				0.9986206293106079,
				0.5452454686164856,
				2.0104475021362305
			],
			"min":[
				-0.9986207485198975,
				-0.5022776126861572,
				-2.0881199836730957
			],
			"type":"VEC3"
		},
		{
			"bufferView":1,
			"componentType":5126,
			"count":430,
			"type":"VEC3"
		},
		{
			"bufferView":2,
			"componentType":5126,
			"count":430,
			"type":"VEC2"
		},
		{
			"bufferView":3,
			"componentType":5123,
			"count":1332,
			"type":"SCALAR"
		},
		{
			"bufferView":4,
			"componentType":5126,
			"count":722,
			"max":[
				0.9524537920951843,
				0.249836266040802,
				2.0990054607391357
			],
			"min":[
				-0.9524540901184082,
				-0.5347031950950623,
				-2.1065688133239746
			],
			"type":"VEC3"
		},
		{
			"bufferView":5,
			"componentType":5126,
			"count":722,
			"type":"VEC3"
		},
		{
			"bufferView":6,
			"componentType":5126,
			"count":722,
			"type":"VEC2"
		},
		{
			"bufferView":7,
			"componentType":5123,
			"count":1632,
			"type":"SCALAR"
		},
		{
			"bufferView":8,
			"componentType":5126,
			"count":78,
			"max":[
				0.8937330842018127,
				0.020436763763427734,
				2.1967074871063232
			],
			"min":[
				-0.8937332630157471,
				-0.48875993490219116,
				1.6060385704040527
			],
			"type":"VEC3"
		},
		{
			"bufferView":9,
			"componentType":5126,
			"count":78,
			"type":"VEC3"
		},
		{
			"bufferView":10,
			"componentType":5126,
			"count":78,
			"type":"VEC2"
		},
		{
			"bufferView":11,
			"componentType":5123,
			"count":324,
			"type":"SCALAR"
		},
		{
			"bufferView":12,
			"componentType":5126,
			"count":102,
			"max":[
				0.9075692296028137,
				0.2197936773300171,
				2.057835817337036
			],
			"min":[
				-0.907569408416748,
				-0.29728901386260986,
				0.11015007644891739
			],
			"type":"VEC3"
		},
		{
			"bufferView":13,
			"componentType":5126,
			"count":102,
			"type":"VEC3"
		},
		{
			"bufferView":14,
			"componentType":5126,
			"count":102,
			"type":"VEC2"
		},
		{
			"bufferView":15,
			"componentType":5123,
			"count":246,
			"type":"SCALAR"
		},
		{
			"bufferView":16,
			"componentType":5126,
			"count":43,
			"max":[
				0.9130183458328247,
				-0.07626152038574219,
				-1.465935468673706
			],
			"min":[
				-0.9130187034606934,
				-0.40575844049453735,
				-2.1967086791992188
			],
			"type":"VEC3"
		},
		{
			"bufferView":17,
			"componentType":5126,
			"count":43,
			"type":"VEC3"
		},
		{
			"bufferView":18,
			"componentType":5126,
			"count":43,
			"type":"VEC2"
		},
		{
			"bufferView":19,
			"componentType":5123,
			"count":180,
			"type":"SCALAR"
		},
		{
			"bufferView":20,
			"componentType":5126,
			"count":40,
			"max":[
				0.7394367456436157,
				0.5052726864814758,
				0.543720006942749
			],
			"min":[
				-0.7394371032714844,
				0.17458581924438477,
				-1.019381046295166
			],
			"type":"VEC3"
		},
		{
			"bufferView":21,
			"componentType":5126,
			"count":40,
			"type":"VEC3"
		},
		{
			"bufferView":22,
			"componentType":5126,
			"count":40,
			"type":"VEC2"
		},
		{
			"bufferView":23,
			"componentType":5123,
			"count":102,
			"type":"SCALAR"
		},
		{
			"bufferView":24,
			"componentType":5126,
			"count":18,
			"max":[
				0.8160989880561829,
				0.07181340456008911,
				-1.8039906024932861
			],
			"min":[
				-0.8160994052886963,
				0.005527973175048828,
				-2.0784661769866943
			],
			"type":"VEC3"
		},
		{
			"bufferView":25,
			"componentType":5126,
			"count":18,
			"type":"VEC3"
		},
		{
			"bufferView":26,
			"componentType":5126,
			"count":18,
			"type":"VEC2"
		},
		{
			"bufferView":27,
			"componentType":5123,
			"count":42,
			"type":"SCALAR"
		},
		{
			"bufferView":28,
			"componentType":5126,
			"count":18,
			"max":[
				0.8361352682113647,
				0.10385310649871826,
				2.0104501247406006
			],
			"min":[
				-0.8361356258392334,
				-0.0037299394607543945,
				1.6910803318023682
			],
			"type":"VEC3"
		},
		{
			"bufferView":29,
			"componentType":5126,
			"count":18,
			"type":"VEC3"
		},
		{
			"bufferView":30,
			"componentType":5126,
			"count":18,
			"type":"VEC2"
		},
		{
			"bufferView":31,
			"componentType":5123,
			"count":42,
			"type":"SCALAR"
		},
		{
			"bufferView":32,
			"componentType":5126,
			"count":18,
			"max":[
				0.8160989880561829,
				0.12372982501983643,
				-1.8039906024932861
			],
			"min":[
				-0.8160994052886963,
				0.04204756021499634,
				-2.0702474117279053
			],
			"type":"VEC3"
		},
		{
			"bufferView":33,
			"componentType":5126,
			"count":18,
			"type":"VEC3"
		},
		{
			"bufferView":34,
			"componentType":5126,
			"count":18,
			"type":"VEC2"
		},
		{
			"bufferView":35,
			"componentType":5123,
			"count":42,
			"type":"SCALAR"
		},
		{
			"bufferView":36,
			"componentType":5126,
			"count":127,
			"max":[
				0.907569169998169,
				0.24053972959518433,
				2.0578360557556152
			],
			"min":[
				-0.9075696468353271,
				-0.29728901386260986,
				0.11014997214078903
			],
			"type":"VEC3"
		},
		{
			"bufferView":37,
			"componentType":5126,
			"count":127,
			"type":"VEC3"
		},
		{
			"bufferView":38,
			"componentType":5126,
			"count":127,
			"type":"VEC2"
		},
		{
			"bufferView":39,
			"componentType":5123,
			"count":420,
			"type":"SCALAR"
		},
		{
			"bufferView":40,
			"componentType":5126,
			"count":47,
			"max":[
				0.5264843702316284,
				0.24983638525009155,
				-1.4422979354858398
			],
			"min":[
				-0.526484489440918,
				-0.0821879506111145,
				-2.1065688133239746
			],
			"type":"VEC3"
		},
		{
			"bufferView":41,
			"componentType":5126,
			"count":47,
			"type":"VEC3"
		},
		{
			"bufferView":42,
			"componentType":5126,
			"count":47,
			"type":"VEC2"
		},
		{
			"bufferView":43,
			"componentType":5123,
			"count":168,
			"type":"SCALAR"
		},
		{
			"bufferView":44,
			"componentType":5126,
			"count":172,
			"max":[
				0.986893355846405,
				0.04857388138771057,
				1.6940314769744873
			],
			"min":[
				0.5080163478851318,
				-0.6046380996704102,
				1.0074450969696045
			],
			"type":"VEC3"
		},
		{
			"bufferView":45,
			"componentType":5126,
			"count":172,
			"type":"VEC3"
		},
		{
			"bufferView":46,
			"componentType":5126,
			"count":172,
			"type":"VEC2"
		},
		{
			"bufferView":47,
			"componentType":5123,
			"count":498,
			"type":"SCALAR"
		},
		{
			"bufferView":48,
			"componentType":5126,
			"count":172,
			"max":[
				-0.5080156326293945,
				0.04857376217842102,
				1.6956274509429932
			],
			"min":[
				-0.9868927001953125,
				-0.6046382188796997,
				1.0090409517288208
			],
			"type":"VEC3"
		},
		{
			"bufferView":49,
			"componentType":5126,
			"count":172,
			"type":"VEC3"
		},
		{
			"bufferView":50,
			"componentType":5126,
			"count":172,
			"type":"VEC2"
		},
		{
			"bufferView":51,
			"componentType":5123,
			"count":498,
			"type":"SCALAR"
		},
		{
			"bufferView":52,
			"componentType":5126,
			"count":172,
			"max":[
				0.9288375973701477,
				0.04857394099235535,
				-0.7404991388320923
			],
			"min":[
				0.6494500637054443,
				-0.6046379208564758,
				-1.393710970878601
			],
			"type":"VEC3"
		},
		{
			"bufferView":53,
			"componentType":5126,
			"count":172,
			"type":"VEC3"
		},
		{
			"bufferView":54,
			"componentType":5126,
			"count":172,
			"type":"VEC2"
		},
		{
			"bufferView":55,
			"componentType":5126,
			"count":172,
			"max":[
				-0.6494495272636414,
				0.04857394099235535,
				-0.7404991388320923
			],
			"min":[
				-0.9288368821144104,
				-0.6046379208564758,
				-1.393710970878601
			],
			"type":"VEC3"
		},
		{
			"bufferView":56,
			"componentType":5126,
			"count":172,
			"type":"VEC3"
		},
		{
			"bufferView":57,
			"componentType":5126,
			"count":172,
			"type":"VEC2"
		}
	],
	"bufferViews":[
		{
			"buffer":0,
			"byteLength":5160,
			"byteOffset":0,
			"target":34962
		},
		{
			"buffer":0,
			"byteLength":5160,
			"byteOffset":5160,
			"target":34962
		},
		{
			"buffer":0,
			"byteLength":3440,
			"byteOffset":10320,
			"target":34962
		},
		{
			"buffer":0,
			"byteLength":2664,
			"byteOffset":13760,
			"target":34963
		},
		{
			"buffer":0,
			"byteLength":8664,
			"byteOffset":16424,
			"target":34962
		},
		{
			"buffer":0,
			"byteLength":8664,
			"byteOffset":25088,
			"target":34962
		},
		{
			"buffer":0,
			"byteLength":5776,
			"byteOffset":33752,
			"target":34962
		},
		{
			"buffer":0,
			"byteLength":3264,
			"byteOffset":39528,
			"target":34963
		},
		{
			"buffer":0,
			"byteLength":936,
			"byteOffset":42792,
			"target":34962
		},
		{
			"buffer":0,
			"byteLength":936,
			"byteOffset":43728,
			"target":34962
		},
		{
			"buffer":0,
			"byteLength":624,
			"byteOffset":44664,
			"target":34962
		},
		{
			"buffer":0,
			"byteLength":648,
			"byteOffset":45288,
			"target":34963
		},
		{
			"buffer":0,
			"byteLength":1224,
			"byteOffset":45936,
			"target":34962
		},
		{
			"buffer":0,
			"byteLength":1224,
			"byteOffset":47160,
			"target":34962
		},
		{
			"buffer":0,
			"byteLength":816,
			"byteOffset":48384,
			"target":34962
		},
		{
			"buffer":0,
			"byteLength":492,
			"byteOffset":49200,
			"target":34963
		},
		{
			"buffer":0,
			"byteLength":516,
			"byteOffset":49692,
			"target":34962
		},
		{
			"buffer":0,
			"byteLength":516,
			"byteOffset":50208,
			"target":34962
		},
		{
			"buffer":0,
			"byteLength":344,
			"byteOffset":50724,
			"target":34962
		},
		{
			"buffer":0,
			"byteLength":360,
			"byteOffset":51068,
			"target":34963
		},
		{
			"buffer":0,
			"byteLength":480,
			"byteOffset":51428,
			"target":34962
		},
		{
			"buffer":0,
			"byteLength":480,
			"byteOffset":51908,
			"target":34962
		},
		{
			"buffer":0,
			"byteLength":320,
			"byteOffset":52388,
			"target":34962
		},
		{
			"buffer":0,
			"byteLength":204,
			"byteOffset":52708,
			"target":34963
		},
		{
			"buffer":0,
			"byteLength":216,
			"byteOffset":52912,
			"target":34962
		},
		{
			"buffer":0,
			"byteLength":216,
			"byteOffset":53128,
			"target":34962
		},
		{
			"buffer":0,
			"byteLength":144,
			"byteOffset":53344,
			"target":34962
		},
		{
			"buffer":0,
			"byteLength":84,
			"byteOffset":53488,
			"target":34963
		},
		{
			"buffer":0,
			"byteLength":216,
			"byteOffset":53572,
			"target":34962
		},
		{
			"buffer":0,
			"byteLength":216,
			"byteOffset":53788,
			"target":34962
		},
		{
			"buffer":0,
			"byteLength":144,
			"byteOffset":54004,
			"target":34962
		},
		{
			"buffer":0,
			"byteLength":84,
			"byteOffset":54148,
			"target":34963
		},
		{
			"buffer":0,
			"byteLength":216,
			"byteOffset":54232,
			"target":34962
		},
		{
			"buffer":0,
			"byteLength":216,
			"byteOffset":54448,
			"target":34962
		},
		{
			"buffer":0,
			"byteLength":144,
			"byteOffset":54664,
			"target":34962
		},
		{
			"buffer":0,
			"byteLength":84,
			"byteOffset":54808,
			"target":34963
		},
		{
			"buffer":0,
			"byteLength":1524,
			"byteOffset":54892,
			"target":34962
		},
		{
			"buffer":0,
			"byteLength":1524,
			"byteOffset":56416,
			"target":34962
		},
		{
			"buffer":0,
			"byteLength":1016,
			"byteOffset":57940,
			"target":34962
		},
		{
			"buffer":0,
			"byteLength":840,
			"byteOffset":58956,
			"target":34963
		},
		{
			"buffer":0,
			"byteLength":564,
			"byteOffset":59796,
			"target":34962
		},
		{
			"buffer":0,
			"byteLength":564,
			"byteOffset":60360,
			"target":34962
		},
		{
			"buffer":0,
			"byteLength":376,
			"byteOffset":60924,
			"target":34962
		},
		{
			"buffer":0,
			"byteLength":336,
			"byteOffset":61300,
			"target":34963
		},
		{
			"buffer":0,
			"byteLength":2064,
			"byteOffset":61636,
			"target":34962
		},
		{
			"buffer":0,
			"byteLength":2064,
			"byteOffset":63700,
			"target":34962
		},
		{
			"buffer":0,
			"byteLength":1376,
			"byteOffset":65764,
			"target":34962
		},
		{
			"buffer":0,
			"byteLength":996,
			"byteOffset":67140,
			"target":34963
		},
		{
			"buffer":0,
			"byteLength":2064,
			"byteOffset":68136,
			"target":34962
		},
		{
			"buffer":0,
			"byteLength":2064,
			"byteOffset":70200,
			"target":34962
		},
		{
			"buffer":0,
			"byteLength":1376,
			"byteOffset":72264,
			"target":34962
		},
		{
			"buffer":0,
			"byteLength":996,
			"byteOffset":73640,
			"target":34963
		},
		{
			"buffer":0,
			"byteLength":2064,
			"byteOffset":74636,
			"target":34962
		},
		{
			"buffer":0,
			"byteLength":2064,
			"byteOffset":76700,
			"target":34962
		},
		{
			"buffer":0,
			"byteLength":1376,
			"byteOffset":78764,
			"target":34962
		},
		{
			"buffer":0,
			"byteLength":2064,
			"byteOffset":80140,
			"target":34962
		},
		{
			"buffer":0,
			"byteLength":2064,
			"byteOffset":82204,
			"target":34962
		},
		{
			"buffer":0,
			"byteLength":1376,
			"byteOffset":84268,
			"target":34962
		}
	],
	"samplers":[
		{
			"magFilter":9729,
			"minFilter":9987
		}
	],
	"buffers":[
		{
			"byteLength":85644,
			"uri":"scene.bin"
		}
	]
}
