# Blender 4.5.4 LTS
# www.blender.org
mtllib editorCamera.mtl
o Cube.002
v 0.075000 -0.048983 1.400065
v 0.075000 0.851017 1.400065
v 0.075000 -0.048983 1.550065
v 0.075000 0.851017 1.550065
v -0.075000 -0.048983 1.400065
v -0.075000 0.851017 1.400065
v -0.075000 -0.048983 1.550065
v -0.075000 0.851017 1.550065
v 0.075000 -0.048983 0.265471
v 0.075000 0.851017 0.265471
v 0.075000 -0.048983 0.415471
v 0.075000 0.851017 0.415471
v -0.075000 -0.048983 0.265471
v -0.075000 0.851017 0.265471
v -0.075000 -0.048983 0.415471
v -0.075000 0.851017 0.415471
v 0.075000 0.698874 1.400065
v 0.075000 0.698874 1.550065
v -0.075000 0.698874 1.550065
v -0.075000 0.698874 1.400065
v 0.075000 0.685012 0.265471
v 0.075000 0.685012 0.415471
v -0.075000 0.685012 0.415471
v -0.075000 0.685012 0.265471
v -0.110107 0.110107 0.093430
v -0.110107 -0.110107 0.093430
v -0.450000 0.450000 -0.656570
v -0.450000 -0.450000 -0.656570
v 0.110107 0.110107 0.093430
v 0.110107 -0.110107 0.093430
v 0.450000 0.450000 -0.656570
v 0.450000 -0.450000 -0.656570
v 0.368582 -0.368582 -0.656570
v 0.368582 0.368582 -0.656570
v -0.368582 0.368582 -0.656570
v -0.368582 -0.368582 -0.656570
v 0.368582 -0.368582 -0.568570
v 0.368582 0.368582 -0.568570
v -0.368582 0.368582 -0.568570
v -0.368582 -0.368582 -0.568570
v -0.450000 0.450000 1.806983
v -0.450000 -0.450000 1.806983
v -0.450000 0.450000 0.006983
v -0.450000 -0.450000 0.006983
v 0.450000 0.450000 1.806983
v 0.450000 -0.450000 1.806983
v 0.450000 0.450000 0.006983
v 0.450000 -0.450000 0.006983
v 0.450000 -0.241829 1.555584
v 0.450000 -0.241829 0.258383
v 0.450000 0.241829 0.258383
v 0.450000 0.241829 1.555584
v 0.575604 -0.171253 1.366295
v 0.575604 -0.171253 0.447672
v 0.575604 0.171253 0.447672
v 0.575604 0.171253 1.366295
vn 1.0000 -0.0000 -0.0000
vn -0.0000 -0.0000 1.0000
vn -1.0000 -0.0000 -0.0000
vn -0.0000 -1.0000 -0.0000
vn -0.0000 1.0000 -0.0000
vn -0.0000 -0.0000 -1.0000
vn -0.0000 -0.9999 0.0141
vn -0.0000 0.9108 0.4128
vn 0.9108 -0.0000 0.4128
vn -0.0000 -0.9108 0.4128
vn -0.9108 -0.0000 0.4128
vn 0.8332 -0.0000 0.5529
vn 0.4899 -0.8718 -0.0000
vn 0.4899 0.8718 -0.0000
vn 0.8332 -0.0000 -0.5529
s 0
f 17//1 2//1 4//1 18//1
f 18//2 4//2 8//2 19//2
f 19//3 8//3 6//3 20//3
f 16//3 23//3 20//3 6//3
f 3//4 7//4 5//4 1//4
f 8//5 4//5 2//5 6//5
f 21//1 10//1 12//1 22//1
f 12//5 16//5 6//5 2//5
f 23//3 16//3 14//3 24//3
f 24//6 14//6 10//6 21//6
f 11//4 15//4 13//4 9//4
f 16//5 12//5 10//5 14//5
f 5//6 20//6 17//6 1//6
f 7//3 19//3 20//3 5//3
f 3//2 18//2 19//2 7//2
f 1//1 17//1 18//1 3//1
f 13//6 24//6 21//6 9//6
f 15//3 23//3 24//3 13//3
f 11//2 22//2 23//2 15//2
f 9//1 21//1 22//1 11//1
f 23//7 22//7 17//7 20//7
f 22//1 12//1 2//1 17//1
f 25//8 29//8 31//8 27//8
f 31//6 32//6 33//6 34//6
f 32//9 31//9 29//9 30//9
f 30//10 26//10 28//10 32//10
f 26//11 25//11 27//11 28//11
f 30//2 29//2 25//2 26//2
f 35//4 34//4 38//4 39//4
f 32//6 28//6 36//6 33//6
f 27//6 31//6 34//6 35//6
f 28//6 27//6 35//6 36//6
f 40//6 39//6 38//6 37//6
f 34//3 33//3 37//3 38//3
f 33//5 36//5 40//5 37//5
f 36//1 35//1 39//1 40//1
f 41//5 45//5 47//5 43//5
f 44//6 43//6 47//6 48//6
f 45//1 46//1 49//1 52//1
f 46//4 42//4 44//4 48//4
f 42//3 41//3 43//3 44//3
f 46//2 45//2 41//2 42//2
f 52//12 49//12 53//12 56//12
f 48//1 47//1 51//1 50//1
f 46//1 48//1 50//1 49//1
f 47//1 45//1 52//1 51//1
f 54//1 55//1 56//1 53//1
f 49//13 50//13 54//13 53//13
f 51//14 52//14 56//14 55//14
f 50//15 51//15 55//15 54//15
